Coordinates
version=1
nRows=17
nColumns=40
inDegrees=yes

Units are S.I. units (second, meters, Newtons, ...)
If the header above contains a line with 'inDegrees', this indicates whether rotational values are in degrees (yes) or radians (no).

endheader
time	pelvis_tilt	pelvis_list	pelvis_rotation	pelvis_tx	pelvis_ty	pelvis_tz	hip_flexion_r	hip_adduction_r	hip_rotation_r	knee_angle_r	knee_angle_r_beta	ankle_angle_r	subtalar_angle_r	mtp_angle_r	hip_flexion_l	hip_adduction_l	hip_rotation_l	knee_angle_l	knee_angle_l_beta	ankle_angle_l	subtalar_angle_l	mtp_angle_l	lumbar_extension	lumbar_bending	lumbar_rotation	arm_flex_r	arm_add_r	arm_rot_r	elbow_flex_r	pro_sup_r	wrist_flex_r	wrist_dev_r	arm_flex_l	arm_add_l	arm_rot_l	elbow_flex_l	pro_sup_l	wrist_flex_l	wrist_dev_l
      4.11000000	    -32.95026795	     -1.85929781	     -2.49773718	     -0.43995472	      0.68468072	     -0.90833898	     88.57444311	    -10.00271660	      2.92905962	     91.67542861	      1.60003807	     35.07244860	      0.00000000	      0.00000000	     91.26493475	    -19.38227701	      9.47466933	     90.45941271	      1.57881459	     32.77695550	      0.00000000	      0.00000000	    -19.58274926	      1.54726313	      5.09508884	     10.28590532	    -55.26023122	     76.83006708	     92.81471771	     86.41519883	      0.00000000	      0.00000000	    -11.73955664	    -49.02067762	     45.28316806	     96.52620319	     87.81045059	      0.00000000	      0.00000000
      4.11500000	    -32.94977910	     -1.88335923	     -2.50832919	     -0.43987687	      0.68474736	     -0.90831362	     88.54347941	     -9.97923474	      2.91251866	     91.65056691	      1.59960415	     35.12820962	      0.00000000	      0.00000000	     91.26134047	    -19.40361686	      9.49304942	     90.45300427	      1.57870274	     32.78503036	      0.00000000	      0.00000000	    -19.61457721	      1.57475137	      5.02562507	     10.69728088	    -55.23604491	     77.29051948	     92.80565176	     86.67755557	      0.00000000	      0.00000000	    -11.91985715	    -49.00185584	     45.13531050	     96.53256847	     87.69853703	      0.00000000	      0.00000000
      4.12000000	    -32.97088364	     -1.84970536	     -2.50314373	     -0.43980346	      0.68474855	     -0.90835157	     88.57813977	     -9.99254067	      2.94069640	     91.66424227	      1.59984283	     35.09014791	      0.00000000	      0.00000000	     91.26319426	    -19.40894805	      9.43660447	     90.46031058	      1.57883026	     32.83216745	      0.00000000	      0.00000000	    -19.62255843	      1.54918212	      4.79375232	     11.18859513	    -55.17202228	     77.79113752	     92.85910199	     86.66465561	      0.00000000	      0.00000000	    -12.53754001	    -48.91908318	     44.46205204	     96.57003361	     87.71185161	      0.00000000	      0.00000000
      4.12500000	    -32.97988821	     -1.76660075	     -2.59704447	     -0.43964246	      0.68471784	     -0.90830584	     88.60293588	     -9.90790189	      3.04345188	     91.65370339	      1.59965890	     35.08913937	      0.00000000	      0.00000000	     91.21948918	    -19.49982986	      9.33946177	     90.47023124	      1.57900341	     32.85826901	      0.00000000	      0.00000000	    -19.63434558	      1.44247777	      4.89872409	     11.11334486	    -55.17886225	     77.73324885	     92.81608496	     86.61034696	      0.00000000	      0.00000000	    -12.53616559	    -48.91605935	     44.44893868	     96.57774634	     87.74171749	      0.00000000	      0.00000000
      4.13000000	    -33.11146020	     -1.87937126	     -2.55078549	     -0.43981157	      0.68453037	     -0.90835485	     88.70441054	     -9.89149496	      2.99544667	     91.64275947	      1.59946789	     35.06570284	      0.00000000	      0.00000000	     91.42283916	    -19.44976740	      9.48335989	     90.45445143	      1.57872800	     32.79586585	      0.00000000	      0.00000000	    -19.52926531	      1.57751497	      4.96641652	     10.87584133	    -55.22992741	     77.42796300	     92.86259992	     86.96478927	      0.00000000	      0.00000000	    -12.50630647	    -48.89901464	     44.43593680	     96.62988040	     87.64828861	      0.00000000	      0.00000000
      4.13500000	    -33.13380787	     -1.83179881	     -2.56352068	     -0.43974352	      0.68453351	     -0.90838430	     88.74230906	     -9.89830472	      3.01804067	     91.63987171	      1.59941749	     35.08481939	      0.00000000	      0.00000000	     91.42047329	    -19.47439106	      9.40382378	     90.45278381	      1.57869890	     32.80516942	      0.00000000	      0.00000000	    -19.52858114	      1.54580179	      4.61702431	     11.95048063	    -55.12690780	     78.66185820	     92.81985274	     86.62918259	      0.00000000	      0.00000000	    -13.36321730	    -48.75379213	     43.47691990	     96.66146013	     87.74425898	      0.00000000	      0.00000000
      4.14000000	    -33.08026269	     -1.90587582	     -2.57553081	     -0.43943508	      0.68469282	     -0.90831938	     88.62498198	     -9.87333861	      2.94093534	     91.63279671	      1.59929401	     35.09050370	      0.00000000	      0.00000000	     91.37670449	    -19.53213730	      9.45046435	     90.47044662	      1.57900717	     32.80132612	      0.00000000	      0.00000000	    -19.63551485	      1.60451561	      4.92916628	     11.12994069	    -55.20936544	     77.74217043	     92.88418553	     86.14683741	      0.00000000	      0.00000000	    -12.84479354	    -48.82201336	     44.01344321	     96.60723776	     87.90891137	      0.00000000	      0.00000000
      4.14500000	    -33.12929243	     -1.95292856	     -2.56774821	     -0.43941908	      0.68453771	     -0.90839929	     88.68051403	     -9.86102902	      2.92492265	     91.67450616	      1.60002197	     35.01474840	      0.00000000	      0.00000000	     91.47081843	    -19.53853411	      9.49045255	     90.49739635	      1.57947753	     32.70971696	      0.00000000	      0.00000000	    -19.57515960	      1.67094465	      5.14041090	     10.83291023	    -55.28563057	     77.55897947	     92.88846162	     86.16553562	      0.00000000	      0.00000000	    -12.25588847	    -48.88747485	     44.74716025	     96.53783606	     87.88054023	      0.00000000	      0.00000000
      4.15000000	    -33.16265182	     -1.94610057	     -2.57527692	     -0.43931556	      0.68447843	     -0.90837386	     88.68477501	     -9.83136812	      2.95649930	     91.64012307	      1.59942187	     35.16169159	      0.00000000	      0.00000000	     91.48385776	    -19.55670651	      9.47531991	     90.48961142	      1.57934166	     32.86283660	      0.00000000	      0.00000000	    -19.59222867	      1.67960936	      4.78229130	     11.69516943	    -55.18275736	     78.38365893	     92.89271188	     86.69512126	      0.00000000	      0.00000000	    -13.30160679	    -48.72970174	     43.56278636	     96.65275179	     87.72092566	      0.00000000	      0.00000000
      4.15500000	    -33.25043222	     -1.92361673	     -2.56854106	     -0.43930558	      0.68431748	     -0.90848250	     88.79057494	     -9.85163400	      2.97934645	     91.65065077	      1.59960562	     35.13319354	      0.00000000	      0.00000000	     91.57450770	    -19.53791324	      9.44989097	     90.49613897	      1.57945559	     32.79988191	      0.00000000	      0.00000000	    -19.51362342	      1.66628302	      5.01136483	     11.05804156	    -55.23383874	     77.73343760	     92.88860813	     86.63132067	      0.00000000	      0.00000000	    -12.78227899	    -48.81300684	     44.16393697	     96.57423009	     87.75035382	      0.00000000	      0.00000000
      4.16000000	    -33.30311300	     -1.81266999	     -2.57763453	     -0.43923779	      0.68418151	     -0.90853774	     88.88191283	     -9.84147539	      3.13166950	     91.65424028	      1.59966827	     35.23837513	      0.00000000	      0.00000000	     91.56526624	    -19.54338209	      9.29879400	     90.49375307	      1.57941394	     32.90469919	      0.00000000	      0.00000000	    -19.53466257	      1.52391305	      5.30843266	      9.62478339	    -55.28201526	     76.07038203	     92.93015553	     85.64167033	      0.00000000	      0.00000000	    -12.56571408	    -48.87106307	     44.18890100	     96.58719448	     88.00866917	      0.00000000	      0.00000000
      4.16500000	    -33.27440495	     -1.90082301	     -2.56688053	     -0.43900333	      0.68423130	     -0.90855735	     88.80551539	     -9.87166379	      2.98302665	     91.65966234	      1.59976290	     35.20788114	      0.00000000	      0.00000000	     91.56582529	    -19.56613467	      9.37909299	     90.50556571	      1.57962011	     32.85299280	      0.00000000	      0.00000000	    -19.53447828	      1.65398541	      4.99837863	     11.23827589	    -55.23340473	     77.96562568	     92.90232002	     86.80747305	      0.00000000	      0.00000000	    -12.90528768	    -48.76519005	     44.03435980	     96.52916787	     87.71456404	      0.00000000	      0.00000000
      4.17000000	    -33.42824986	     -2.11464847	     -2.57191854	     -0.43891695	      0.68368491	     -0.90843249	     88.90397180	     -9.77922141	      2.82454207	     91.70133449	      1.60049022	     35.22788806	      0.00000000	      0.00000000	     91.87507837	    -19.60808134	      9.63639336	     90.59535669	      1.58118726	     32.82049013	      0.00000000	      0.00000000	    -19.38112338	      1.89000750	      4.91373941	     11.59348795	    -55.19825502	     78.42563840	     92.86625364	     86.63581349	      0.00000000	      0.00000000	    -13.48436275	    -48.65297099	     43.43527672	     96.63072269	     87.73311813	      0.00000000	      0.00000000
      4.17500000	    -33.42809026	     -2.11615586	     -2.56559103	     -0.43870364	      0.68362241	     -0.90845794	     88.90200215	     -9.75908033	      2.87231266	     91.74285653	      1.60121491	     35.20060218	      0.00000000	      0.00000000	     91.86827427	    -19.62976971	      9.60527758	     90.60351792	      1.58132970	     32.79271142	      0.00000000	      0.00000000	    -19.39492055	      1.88466832	      5.30141361	     10.47682792	    -55.30037754	     77.26808906	     92.94718351	     85.90995327	      0.00000000	      0.00000000	    -12.64137533	    -48.78542615	     44.35169571	     96.46698439	     87.93878041	      0.00000000	      0.00000000
      4.18000000	    -33.43312516	     -2.04452996	     -2.58408159	     -0.43861350	      0.68355497	     -0.90853005	     88.92581495	     -9.76069957	      2.94764841	     91.74447519	      1.60124316	     35.24609083	      0.00000000	      0.00000000	     91.84253668	    -19.62848344	      9.54316041	     90.62565599	      1.58171608	     32.88494121	      0.00000000	      0.00000000	    -19.42099373	      1.82267373	      4.95724223	     11.58797409	    -55.19541382	     78.42124426	     92.90275490	     86.60402557	      0.00000000	      0.00000000	    -13.47890758	    -48.61061126	     43.37388415	     96.55155299	     87.74671317	      0.00000000	      0.00000000
      4.18500000	    -33.43250708	     -2.01416853	     -2.59139541	     -0.43849062	      0.68352504	     -0.90860927	     88.92482224	     -9.75262280	      3.00487962	     91.75499245	      1.60142672	     35.31271808	      0.00000000	      0.00000000	     91.81937626	    -19.63974816	      9.48470239	     90.64354220	      1.58202826	     32.88251207	      0.00000000	      0.00000000	    -19.45605077	      1.80314931	      4.97767671	     11.61332538	    -55.23812285	     78.44843668	     92.95394679	     86.63710243	      0.00000000	      0.00000000	    -13.46057642	    -48.59017604	     43.37108270	     96.52087341	     87.74173624	      0.00000000	      0.00000000
      4.19000000	    -33.39815390	     -1.93669428	     -2.67771175	     -0.43812297	      0.68341612	     -0.90856679	     88.91443970	     -9.68855561	      3.08484500	     91.79041862	      1.60204503	     35.30196827	      0.00000000	      0.00000000	     91.74022517	    -19.74708885	      9.38043464	     90.70080777	      1.58302773	     32.93302560	      0.00000000	      0.00000000	    -19.48189040	      1.70066831	      5.29718524	     10.99243415	    -55.27571383	     77.84488365	     92.93783248	     86.57225492	      0.00000000	      0.00000000	    -12.88768411	    -48.70320407	     44.08593372	     96.47430145	     87.74769695	      0.00000000	      0.00000000
